HIERARCHY
ROOT hips
{
  OFFSET 0 9.313263304106702 1.2146308026317778
  CHANNELS 6 Xposition Yposition Zposition Yrotation Xrotation Zrotation
  JOINT spine
  {
    OFFSET -6.402521e-31 0.5173342420023708 0
    CHANNELS 3 Yrotation Xrotation Zrotation
    JOINT chest
    {
      OFFSET 0 1.130544299341115 0
      CHANNELS 3 Yrotation Xrotation Zrotation
      JOINT upperChest
      {
        OFFSET 0 1.0863555061129995 0
        CHANNELS 3 Yrotation Xrotation Zrotation
        JOINT neck
        {
          OFFSET 0 1.3773706506454462 0
          CHANNELS 3 Yrotation Xrotation Zrotation
          JOINT head
          {
            OFFSET 0 0.7374408940073979 0
            CHANNELS 3 Yrotation Xrotation Zrotation
            JOINT leftEye
            {
              OFFSET 0.25066580148932727 0.6408406698778757 0.15963719178883284
              CHANNELS 3 Yrotation Xrotation Zrotation
              End Site
              {
                OFFSET 0.25066580148932727 0.6408406698778757 0.15963719178883284
              }
            }
            JOINT rightEye
            {
              OFFSET -0.25066576739704244 0.6408406384191823 0.15963727561643756
              CHANNELS 3 Yrotation Xrotation Zrotation
              End Site
              {
                OFFSET -0.25066576739704244 0.6408406384191823 0.15963727561643756
              }
            }
          }
        }
        JOINT leftShoulder
        {
          OFFSET 0.3761817444281191 1.0539491987447769 0
          CHANNELS 3 Yrotation Xrotation Zrotation
          JOINT leftUpperArm
          {
            OFFSET 0.8702844380000002 0 0
            CHANNELS 3 Yrotation Xrotation Zrotation
            JOINT leftLowerArm
            {
              OFFSET 2.198527310000323 0 0
              CHANNELS 3 Yrotation Xrotation Zrotation
              JOINT leftHand
              {
                OFFSET 2.146852313968281 0 0
                CHANNELS 3 Yrotation Xrotation Zrotation
                JOINT leftIndexProximal
                {
                  OFFSET 0.6585177834681599 0.07380250427007962 0.18382213159631788
                  CHANNELS 3 Yrotation Xrotation Zrotation
                  JOINT leftIndexIntermediate
                  {
                    OFFSET 0.3323021288626682 -0.009606893929485771 -0.012820872253340998
                    CHANNELS 3 Yrotation Xrotation Zrotation
                    JOINT leftIndexDistal
                    {
                      OFFSET 0.2045908926985518 -0.0071133989147997845 -0.006828784783599051
                      CHANNELS 3 Yrotation Xrotation Zrotation
                      End Site
                      {
                        OFFSET 0.2045908926985518 -0.0071133989147997845 -0.006828784783599051
                      }
                    }
                  }
                }
                JOINT leftLittleProximal
                {
                  OFFSET 0.6110054258835662 0.07380246363125398 -0.29175655876064077
                  CHANNELS 3 Yrotation Xrotation Zrotation
                  JOINT leftLittleIntermediate
                  {
                    OFFSET 0.3144281999999998 -2.5124724523095665e-9 1.8658118799974588e-7
                    CHANNELS 3 Yrotation Xrotation Zrotation
                    JOINT leftLittleDistal
                    {
                      OFFSET 0.18116185580251631 0.002815456192251098 0.0034826415518049436
                      CHANNELS 3 Yrotation Xrotation Zrotation
                      End Site
                      {
                        OFFSET 0.18116185580251631 0.002815456192251098 0.0034826415518049436
                      }
                    }
                  }
                }
                JOINT leftMiddleProximal
                {
                  OFFSET 0.6637478005691111 0.07380246480054087 0.02046981859247815
                  CHANNELS 3 Yrotation Xrotation Zrotation
                  JOINT leftMiddleIntermediate
                  {
                    OFFSET 0.3705733999999994 -2.9611069152224445e-9 9.35054791928458e-8
                    CHANNELS 3 Yrotation Xrotation Zrotation
                    JOINT leftMiddleDistal
                    {
                      OFFSET 0.22861063500000056 -1.82673876025774e-9 -1.6740782024515788e-7
                      CHANNELS 3 Yrotation Xrotation Zrotation
                      End Site
                      {
                        OFFSET 0.22861063500000056 -1.82673876025774e-9 -1.6740782024515788e-7
                      }
                    }
                  }
                }
                JOINT leftRingProximal
                {
                  OFFSET 0.6561845547265777 0.07380246406440083 -0.13588087571513918
                  CHANNELS 3 Yrotation Xrotation Zrotation
                  JOINT leftRingIntermediate
                  {
                    OFFSET 0.3437531000000005 -2.746796123886952e-9 1.4935781944558357e-7
                    CHANNELS 3 Yrotation Xrotation Zrotation
                    JOINT leftRingDistal
                    {
                      OFFSET 0.1983118991198174 -0.002467117924596085 -0.004538141969590015
                      CHANNELS 3 Yrotation Xrotation Zrotation
                      End Site
                      {
                        OFFSET 0.1983118991198174 -0.002467117924596085 -0.004538141969590015
                      }
                    }
                  }
                }
                JOINT leftThumbProximal
                {
                  OFFSET 0.09767004258864787 -0.14930060425447422 -0.07008212897521154
                  CHANNELS 3 Yrotation Xrotation Zrotation
                  JOINT leftThumbIntermediate
                  {
                    OFFSET 0.36682123028154767 -0.015768465060082004 0.28693641268151077
                    CHANNELS 3 Yrotation Xrotation Zrotation
                    JOINT leftThumbDistal
                    {
                      OFFSET 0.21091084272403915 -0.016756648201192714 0.1933767059105508
                      CHANNELS 3 Yrotation Xrotation Zrotation
                      End Site
                      {
                        OFFSET 0.21091084272403915 -0.016756648201192714 0.1933767059105508
                      }
                    }
                  }
                }
              }
            }
          }
        }
        JOINT rightShoulder
        {
          OFFSET -0.37618174442811925 1.0539491987447769 0
          CHANNELS 3 Yrotation Xrotation Zrotation
          JOINT rightUpperArm
          {
            OFFSET -0.870284438 0 0
            CHANNELS 3 Yrotation Xrotation Zrotation
            JOINT rightLowerArm
            {
              OFFSET -2.1985273100003235 0 0
              CHANNELS 3 Yrotation Xrotation Zrotation
              JOINT rightHand
              {
                OFFSET -2.1468523139682802 0 0
                CHANNELS 3 Yrotation Xrotation Zrotation
                JOINT rightIndexProximal
                {
                  OFFSET -0.6585177834681599 0.07380250427007962 0.18382213159631788
                  CHANNELS 3 Yrotation Xrotation Zrotation
                  JOINT rightIndexIntermediate
                  {
                    OFFSET -0.3323021288626682 -0.009606893929485771 -0.012820872253340998
                    CHANNELS 3 Yrotation Xrotation Zrotation
                    JOINT rightIndexDistal
                    {
                      OFFSET -0.2045908926985518 -0.0071133989147997845 -0.006828784783599051
                      CHANNELS 3 Yrotation Xrotation Zrotation
                      End Site
                      {
                        OFFSET -0.2045908926985518 -0.0071133989147997845 -0.006828784783599051
                      }
                    }
                  }
                }
                JOINT rightLittleProximal
                {
                  OFFSET -0.6110054258835662 0.07380246363125398 -0.29175655876064077
                  CHANNELS 3 Yrotation Xrotation Zrotation
                  JOINT rightLittleIntermediate
                  {
                    OFFSET -0.3144281999999998 -2.5124724523095665e-9 1.8658118799974588e-7
                    CHANNELS 3 Yrotation Xrotation Zrotation
                    JOINT rightLittleDistal
                    {
                      OFFSET -0.18116185580251631 0.002815456192251098 0.0034826415518049436
                      CHANNELS 3 Yrotation Xrotation Zrotation
                      End Site
                      {
                        OFFSET -0.18116185580251631 0.002815456192251098 0.0034826415518049436
                      }
                    }
                  }
                }
                JOINT rightMiddleProximal
                {
                  OFFSET -0.6637478005691111 0.07380246480054087 0.02046981859247815
                  CHANNELS 3 Yrotation Xrotation Zrotation
                  JOINT rightMiddleIntermediate
                  {
                    OFFSET -0.3705733999999994 -2.9611069152224445e-9 9.35054791928458e-8
                    CHANNELS 3 Yrotation Xrotation Zrotation
                    JOINT rightMiddleDistal
                    {
                      OFFSET -0.22861063500000056 -1.82673876025774e-9 -1.6740782024515788e-7
                      CHANNELS 3 Yrotation Xrotation Zrotation
                      End Site
                      {
                        OFFSET -0.22861063500000056 -1.82673876025774e-9 -1.6740782024515788e-7
                      }
                    }
                  }
                }
                JOINT rightRingProximal
                {
                  OFFSET -0.6561845547265777 0.07380246406440083 -0.13588087571513918
                  CHANNELS 3 Yrotation Xrotation Zrotation
                  JOINT rightRingIntermediate
                  {
                    OFFSET -0.3437531000000005 -2.746796123886952e-9 1.4935781944558357e-7
                    CHANNELS 3 Yrotation Xrotation Zrotation
                    JOINT rightRingDistal
                    {
                      OFFSET -0.1983118991198174 -0.002467117924596085 -0.004538141969590015
                      CHANNELS 3 Yrotation Xrotation Zrotation
                      End Site
                      {
                        OFFSET -0.1983118991198174 -0.002467117924596085 -0.004538141969590015
                      }
                    }
                  }
                }
                JOINT rightThumbProximal
                {
                  OFFSET -0.09767004258864787 -0.14930060425447422 -0.07008212897521154
                  CHANNELS 3 Yrotation Xrotation Zrotation
                  JOINT rightThumbIntermediate
                  {
                    OFFSET -0.36682123028154767 -0.015768465060082004 0.28693641268151077
                    CHANNELS 3 Yrotation Xrotation Zrotation
                    JOINT rightThumbDistal
                    {
                      OFFSET -0.21091084272403915 -0.016756648201192714 0.1933767059105508
                      CHANNELS 3 Yrotation Xrotation Zrotation
                      End Site
                      {
                        OFFSET -0.21091084272403915 -0.016756648201192714 0.1933767059105508
                      }
                    }
                  }
                }
              }
            }
          }
        }
      }
    }
  }
  JOINT leftUpperLeg
  {
    OFFSET 0.7715603 -0.3993844658041501 0
    CHANNELS 3 Yrotation Xrotation Zrotation
    JOINT leftLowerLeg
    {
      OFFSET 0 -3.529830000249343 0
      CHANNELS 3 Yrotation Xrotation Zrotation
      JOINT leftFoot
      {
        OFFSET 0 -4.154939295409685 0.004208579085223096
        CHANNELS 3 Yrotation Xrotation Zrotation
        JOINT leftToes
        {
          OFFSET 0 -0.6353414391261847 1.10414981190622
          CHANNELS 3 Yrotation Xrotation Zrotation
          End Site
          {
            OFFSET 0 -0.6015820691747853 1.10414981190622
          }
        }
      }
    }
  }
  JOINT rightUpperLeg
  {
    OFFSET -0.7715603 -0.3993844658041501 0
    CHANNELS 3 Yrotation Xrotation Zrotation
    JOINT rightLowerLeg
    {
      OFFSET 0 -3.529830000249343 0
      CHANNELS 3 Yrotation Xrotation Zrotation
      JOINT rightFoot
      {
        OFFSET 0 -4.154939295409685 0.004208579085223096
        CHANNELS 3 Yrotation Xrotation Zrotation
        JOINT rightToes
        {
          OFFSET 0 -0.6353414391261847 1.10414981190622
          CHANNELS 3 Yrotation Xrotation Zrotation
          End Site
          {
            OFFSET 0 -0.6015820691747853 1.10414981190622
          }
        }
      }
    }
  }
}
MOTION
Frames: 4
Frame Time: 0.03333333333333333
0.05120182579213923 8.588728471235793 1.3472242745273424 -1.0141748183702788 -2.789918979203848 3.3087134586854328 2.107987161173358 -3.6710083017409056 1.8716141992631412 0.3127537374805399 3.6750476913781096 -7.103553366138252 0 0 0 -3.044289514367334 0.005319290385148023 -0.019297474288316185 4.119825655217375 5.655108568187192 0.5190651812470689 0 0 0 0 0 0 -13.086965602303462 3.180262365541054 -9.659190026584067 32.834052665430626 10.381239942178285 -71.23954685891107 -37.44951395373915 -0.000049809584561814966 0.000022926770211177277 5.212469104135226 11.272583496050963 -2.286276745437631 -2.5997668799974876 -0.9830194896840525 -15.768084459571615 3.1657302092391375 0.7644245795596672 -27.128263110013844 2.1583756332653183 0.3477638048774269 -18.25052297406554 12.941706735402636 3.9473756213795195 -17.557194471069362 -0.10826699393069664 1.4305432764970774 -36.039559466789534 3.126691487442558 0.8547157894572638 -27.14615227170504 0.7066553392188695 -0.1458359954102658 -18.76594600381089 2.881250528840763 0.6270908533302727 -24.592412200186132 2.5997177511554095 0.5067231323061302 -22.05629460932701 3.365606656048669 0.7725805057132229 -19.502976295880437 3.9391316600135253 1.2314996995641143 -34.69882598575451 0.3841384781927888 0.010722358190400901 -3.1846734138948465 8.384685850386262 -6.58182031691277 19.2198964665923 23.13399794773195 10.280532862189146 -3.063267370134631 7.663631910548542 4.9197102475353125 -2.62390335299142 14.114872948866902 1.4105842385604315 8.857823649557742 29.497320184274407 50.84957489374819 93.89911761145791 75.25876961738258 -0.000023793273404154616 -0.000011937515531731209 48.43563707660832 39.67586840593516 -35.061968390474625 12.732373538816283 7.9731154125542245 -36.62999452757221 -1.9037126580003811 0.2698433888518293 16.0643447070801 -1.8312555946166038 0.24151972612297315 15.115034923203856 -9.587923252713761 -3.3064443552301706 -17.797991904052378 -1.2225048209188871 0.09572470552303491 10.86807595234428 -1.1776111004260608 0.0743450958532836 9.224504294757615 7.909018498386205 3.339090339413345 -28.17359145184259 -2.655776935212518 0.5484291291977907 23.183000567158196 -0.11036540840094194 2.103413622328961 0.8635722479362831 4.917993358592544 1.369794614896001 -20.388558431646512 -1.4389450876748897 0.14610676259677782 11.679265852410904 -0.4152571500691405 -0.7187162723007359 2.9908197228248983 4.024505683865726 2.2151392431311647 9.646666999251945 -7.660784833001112 4.185636336800571 -0.6224819559079946 19.992091174702455 -7.662789310234953 -4.018094632232345 1.5424954170601823 -7.970666172728918 -17.334667076063443 10.9945516238528 22.708288582746246 9.132570029255827 16.556367678354583 -15.28429755570424 2.5944689066637148 0.000008359964655693622 -7.789668738837504 -0.0000016549809231603613 -4.356269016323336 -25.15794018864363 1.9926254315198542 -10.906269690617252 26.16325344998467 -8.165441826832916 -16.3242719882831 -0.327870453002617 -2.078316361388997 -0.000010501569153009917 -0.2430055456733172 0.0000016341138833169953
0.05257758904587139 8.587624809958717 1.3531346846497805 -1.0481959064197703 -2.7898106349805896 3.363211616493807 2.145656016196577 -3.7924547243381217 1.9017316604833376 0.3173554968764905 3.750641957085662 -7.168476617530534 0 0 0 -3.049434538060174 0.01663994354517995 0.003164675414413774 4.116024636867532 5.614308512398937 0.5528713122458971 0 0 0 0 0 0 -13.222223296359694 3.2311233430728166 -9.714352084515102 32.74858049463693 10.7598086974576 -71.02024681247627 -37.60359477303725 -0.00003552105023441766 -0.000012256140955276465 5.208446975982509 10.751814385395566 -2.4914145806235632 -2.6079597622176 -0.9875555126956423 -15.795520626568912 3.165753629748498 0.7644530767914449 -27.12846933829968 2.1583758465612353 0.3477538528950515 -18.250640148208976 12.911032925981425 3.936476602646514 -17.557389483582902 -0.10617390894602771 1.432157732609844 -36.06143411101072 3.1266292746768274 0.8546872915910994 -27.145561118268105 0.7036504290530664 -0.14737979663945336 -18.78428661031451 2.881197060579264 0.6270568604311303 -24.591918548006674 2.5997731914931013 0.5067411689798069 -22.05682321154815 3.3687788688004514 0.774099614123563 -19.522298324904845 3.938997816640614 1.2314152631929638 -34.697446357845244 0.38315106537755844 0.010658861275645611 -3.1765843342049864 8.384922087523448 -6.581982750729603 19.23164570090004 23.131614118542718 10.27982481651963 -3.063392580755867 7.664700291279473 4.9201361422318906 -2.623980780933454 14.170273750514824 1.4106297157889867 8.889328715557433 28.77400035062816 51.19240650309614 93.23035018312589 75.91217442784054 0.000010322715452850222 -0.000014356264570112456 48.67349756469711 38.83003434402712 -33.59637410620798 12.81483729733973 8.03379590620736 -36.60609187412652 -1.826726914631756 0.24827788651886032 15.408345668856882 -1.776064994719226 0.22687487774859216 14.646806436105908 -9.670288830840565 -3.4322237281021684 -18.24252597173664 -1.2175211731401414 0.09489987232809237 10.826846433499577 -1.1723398318428702 0.07355374707568477 9.18086995780489 8.184744512522876 3.5728756921723948 -28.91288823028521 -2.557164641228205 0.5077511694229594 22.30886455890529 -0.060989222491065406 2.1697926502818436 0.2870544611463181 5.0376796903121015 1.43486589642015 -20.77572942938653 -1.3810221173795358 0.13432196958651202 11.194337025010146 -0.3551220554414465 -0.724156735805151 2.5427376893224913 3.916296113680039 2.251716866304766 9.80347403575571 -7.630382417271894 4.175274264377988 -0.62041496643783 20.632733965923208 -7.814065757749037 -4.127248604098043 1.5102340333868134 -7.911187153702274 -17.4014905807358 10.994783406898446 22.685968765774575 9.112201864194363 16.554182272824647 -15.329174106374362 2.605600487340462 9.982497000132636e-7 -7.850174860428671 -0.0000033995665803147713 -4.334183826667648 -25.20465704382979 1.9449031351212533 -10.913319118073613 26.31235433830856 -8.240675665511485 -16.359359193003534 -0.41696858668612263 -1.995363591466955 0.000015290081261542188 -0.20019785430953685 7.933255902484842e-7
0.054017386653206566 8.586570566350762 1.3597539159171892 -1.0872340852392988 -2.799944175408132 3.403113002319627 2.1708608088902133 -3.8707307738491017 1.9490203572996256 0.3172316398497942 3.80849013252447 -7.266472150554811 0 0 0 -3.0538061749421446 0.038076559857588746 0.013132031257390485 4.086312288847324 5.615129941637772 0.6042812331431902 0 0 0 0 0 0 -13.493183174858165 3.3220390001133344 -9.824896114245929 32.62422688082048 10.895503738467387 -70.77142703315066 -37.746446583017956 -0.000027911399831507107 0.000015748569531473854 5.19727098716829 10.059888038829149 -2.8452358450583723 -2.603278546006438 -0.9913416028577101 -15.856209783385554 3.165712945169734 0.764419029537021 -27.128088985875493 2.1583752066734854 0.347760122910756 -18.250562929185058 12.888907848841649 3.930286249489567 -17.565570839368146 -0.10617216083498597 1.4321665932793408 -36.06156320979322 3.1267760540416183 0.8547589631912379 -27.14685645812839 0.6680202299733295 -0.1605042659736221 -18.82170253184889 2.8803056701130423 0.626643822710359 -24.583806540115887 2.6002906656335063 0.5069583561490301 -22.06148679186762 3.3525471468670713 0.7694507684042814 -19.579957627193878 3.938970128149058 1.2314020266445052 -34.697186678327355 0.38317275607902873 0.010659079721640912 -3.1767498771667966 8.3580675369547 -6.5909747056557295 19.2303679701072 23.13444771278167 10.280788834972503 -3.0631545726334277 7.671860973466764 4.9230887054149886 -2.6246393143949 14.216706509648189 1.4097528381161548 8.929664922203129 28.34402657791688 51.476986195023215 92.59036713926758 76.57446959636478 0.000006784942446447643 0.000004297682733561273 48.666056948357834 37.93901579718072 -32.45087098308984 12.87221467378111 8.07626669370671 -36.59059458622104 -1.7719511324151156 0.23351091365527654 14.94303658287207 -1.738622620038706 0.21720208330082696 14.32969229345564 -9.697592695055594 -3.5088363147891557 -18.539991445909276 -1.2075639419979778 0.09323548505225455 10.743891332744708 -1.1681405654690047 0.0729419910778049 9.145928645499808 8.399773368979517 3.763007693145446 -29.499823669852056 -2.487721304024552 0.4801457737035291 21.696313146082066 -0.02543258217928041 2.21250210248272 -0.13787316944336706 5.141226575941632 1.4929538455878981 -21.1201922561425 -1.3357458974757777 0.12547470409082742 10.815971373098206 -0.313658570514443 -0.7287039261888499 2.233711337993987 3.8376563709204157 2.2725066610723577 9.99355166002523 -7.608700418012449 4.1673237811123895 -0.6192655423150674 21.098296471987897 -7.91383860478262 -4.204367833915201 1.4491550129341233 -7.817971343356067 -17.477382530039453 10.993087153003344 22.633680695880592 9.093793096727754 16.56416406641673 -15.377557887848342 2.629687241913578 0.0000033815049676104635 -8.06864725081285 -0.000008649965558198866 -4.320584473983115 -25.23350670406372 1.9097774640599168 -10.919036892735075 26.465277140204627 -8.331730474468827 -16.452624916611654 -0.5117564868384926 -1.890169823478391 0.0000017861817549036357 -0.19705338707521441 0.000002501813223739911
0.055777657438408235 8.585235422307793 1.3669837561307916 -1.1234679038000681 -2.822392352936276 3.4251160159565197 2.1923241201047823 -3.9201858928480395 2.0256867469517896 0.3143132046747755 3.879557629939036 -7.3831758680837325 0 0 0 -3.0587345887729995 0.06207694013861975 0.004767599935875323 4.031181910770589 5.63310602041878 0.6400919704402023 0 0 0 0 0 0 -13.882820858857391 3.455051525108305 -9.988851908056445 32.41111690292086 10.868693817457668 -70.47526538365102 -37.8571458221041 -0.000020934811917727572 0.000008013572094568717 5.182626929063716 9.192670155740304 -3.2213303444749823 -2.595972876406069 -0.9879842775032074 -15.8401354172967 3.16551525245478 0.7643114978496645 -27.126295694935035 2.158381178959129 0.34776524564699424 -18.25061854896802 12.915950383931118 3.946480451013004 -17.596861039165102 -0.11012795768732525 1.4290907687150312 -36.02013769142852 3.1273830213142007 0.8550992832348732 -27.15263208830335 0.611360576427396 -0.17963821818070083 -18.822231032371654 2.8783667485518145 0.6257563787253418 -24.566142970835667 2.6003500990685056 0.5069841304499397 -22.062010646309815 3.3246734441742936 0.7603346417357246 -19.625047198193926 3.938480420918721 1.2310616125297078 -34.69226314000309 0.38484911451516535 0.010752670490428433 -3.1906579373800015 8.317900480322105 -6.603101748546997 19.20355930955165 23.15318051643662 10.28696001110597 -3.0618736038397842 7.690461864263239 4.930768173270027 -2.6262811446425895 14.276722441904907 1.4088866361714398 8.991959094743748 27.966868610392662 51.76464932039633 91.93788347267503 77.23903024689764 0.0000029508172628230445 6.158369103089321e-7 48.60062847416942 37.069991796560394 -31.42445242182081 12.901531672335697 8.097717629517858 -36.58165440549386 -1.740521433684824 0.22525360233558475 14.676696919899118 -1.7196201523726544 0.2123707443911476 14.168770461566172 -9.673772490313272 -3.534200089579807 -18.683779491758543 -1.1931030680451156 0.09084037340979118 10.62373648911156 -1.1651150185057513 0.07250962107874047 9.120952361480585 8.548719438578347 3.900312016006165 -29.92399458517754 -2.44902332724116 0.4651726357416792 21.355844463117425 -0.0034109482103330435 2.235155691415705 -0.404438223825101 5.224409094260745 1.5414961578830952 -21.414815980627083 -1.304178744305905 0.11948520147036346 10.552239872586684 -0.2914635825637184 -0.7311116031567274 2.068458080402292 3.78584372259001 2.275668540611711 10.212680943537933 -7.596924820921361 4.163056020542226 -0.6187035186349582 21.379324344803777 -7.963839241937026 -4.247713368035134 1.4303871067285372 -7.697291583282439 -17.52554035467101 10.99004667868828 22.591092227780354 9.022365470009971 16.691410313282248 -15.465112528870577 2.6579303670525665 -0.000005149309945807852 -8.231698338875878 -0.0000018081238867617013 -4.2908481683291475 -25.24937740719142 1.887262670331896 -10.913255614882296 26.63412748781303 -8.412084552285375 -16.550827800630188 -0.6165882853111714 -1.7810652635020239 -0.0000028827269189594465 -0.2010253261274408 7.930475790151135e-7
